{"accessors":[{"bufferView":0,"componentType":5126,"count":46283,"max":[0.28040772676467896,1.2222900390625,0.19564202427864075],"min":[-0.2887329161167145,-4.942567244370366e-9,-0.1956421583890915],"type":"VEC3"},{"bufferView":1,"componentType":5126,"count":46283,"type":"VEC3"},{"bufferView":2,"componentType":5126,"count":46283,"type":"VEC2"},{"bufferView":3,"componentType":5121,"count":46283,"type":"VEC4"},{"bufferView":4,"componentType":5126,"count":46283,"type":"VEC4"},{"bufferView":5,"componentType":5123,"count":102093,"type":"SCALAR"},{"bufferView":6,"componentType":5126,"count":46283,"max":[1.4901161193847656e-8,0.12252140045166016,0.12153634428977966],"min":[-1.4901161193847656e-8,-0.00008863210678100586,-1.4901161193847656e-8],"type":"VEC3"},{"bufferView":7,"componentType":5126,"count":46283,"type":"VEC3"},{"bufferView":8,"componentType":5126,"count":54,"type":"MAT4"},{"bufferView":9,"componentType":5126,"count":760,"max":[0.0983474999666214,1.3937444686889648,0.10462500154972076],"min":[0.021343499422073364,1.328458547592163,0.05858999863266945],"type":"VEC3"},{"bufferView":10,"componentType":5126,"count":760,"type":"VEC3"},{"bufferView":11,"componentType":5126,"count":760,"type":"VEC2"},{"bufferView":12,"componentType":5121,"count":760,"type":"VEC4"},{"bufferView":13,"componentType":5126,"count":760,"type":"VEC4"},{"bufferView":14,"componentType":5123,"count":4320,"type":"SCALAR"},{"bufferView":15,"componentType":5126,"count":760,"max":[-0.021343499422073364,1.3937444686889648,0.10462500154972076],"min":[-0.0983474999666214,1.328458547592163,0.05858999863266945],"type":"VEC3"},{"bufferView":16,"componentType":5126,"count":760,"type":"VEC3"},{"bufferView":17,"componentType":5126,"count":760,"type":"VEC2"},{"bufferView":18,"componentType":5121,"count":760,"type":"VEC4"},{"bufferView":19,"componentType":5126,"count":760,"type":"VEC4"},{"bufferView":20,"componentType":5126,"count":39251,"max":[0.2241823673248291,1.5807124376296997,0.17183956503868103],"min":[-0.2241823673248291,0.9919999837875366,-0.1718396097421646],"type":"VEC3"},{"bufferView":21,"componentType":5126,"count":39251,"type":"VEC3"},{"bufferView":22,"componentType":5126,"count":39251,"type":"VEC2"},{"bufferView":23,"componentType":5121,"count":39251,"type":"VEC4"},{"bufferView":24,"componentType":5126,"count":39251,"type":"VEC4"},{"bufferView":25,"componentType":5123,"count":145704,"type":"SCALAR"},{"bufferView":26,"componentType":5126,"count":128,"max":[0.03805914893746376,1.2380625009536743,0.019579647108912468],"min":[-0.03796009719371796,1.2259260416030884,-0.0646313726902008],"type":"VEC3"},{"bufferView":27,"componentType":5126,"count":128,"type":"VEC3"},{"bufferView":28,"componentType":5121,"count":128,"type":"VEC4"},{"bufferView":29,"componentType":5126,"count":128,"type":"VEC4"},{"bufferView":30,"componentType":5123,"count":384,"type":"SCALAR"},{"bufferView":31,"componentType":5126,"count":4775,"max":[0.10671749711036682,1.4514975547790527,0.13547171652317047],"min":[-0.10671749711036682,1.3133925199508667,0.02950425073504448],"type":"VEC3"},{"bufferView":32,"componentType":5126,"count":4775,"type":"VEC3"},{"bufferView":33,"componentType":5126,"count":4775,"type":"VEC2"},{"bufferView":34,"componentType":5121,"count":4775,"type":"VEC4"},{"bufferView":35,"componentType":5126,"count":4775,"type":"VEC4"},{"bufferView":36,"componentType":5123,"count":27648,"type":"SCALAR"},{"bufferView":37,"componentType":5126,"count":4775,"max":[0,0.01074373722076416,0.02506118267774582],"min":[0,-0.04185009002685547,-0.01608797162771225],"type":"VEC3"},{"bufferView":38,"componentType":5126,"count":4775,"type":"VEC3"},{"bufferView":39,"componentType":5126,"count":4775,"max":[0,0.01074373722076416,0.025058582425117493],"min":[0,-0.04185009002685547,-0.016147390007972717],"type":"VEC3"},{"bufferView":40,"componentType":5126,"count":4775,"type":"VEC3"},{"bufferView":41,"componentType":5126,"count":4775,"max":[0,0,0],"min":[0,0,0],"type":"VEC3"},{"bufferView":42,"componentType":5126,"count":4775,"type":"VEC3"},{"bufferView":43,"componentType":5126,"count":4775,"max":[0,0,0],"min":[0,0,0],"type":"VEC3"},{"bufferView":44,"componentType":5126,"count":4775,"type":"VEC3"},{"bufferView":45,"componentType":5126,"count":4775,"max":[0,0,0.017612196505069733],"min":[0,0,0],"type":"VEC3"},{"bufferView":46,"componentType":5126,"count":4775,"type":"VEC3"},{"bufferView":47,"componentType":5126,"count":4775,"max":[0,0,0.017646290361881256],"min":[0,0,0],"type":"VEC3"},{"bufferView":48,"componentType":5126,"count":4775,"type":"VEC3"},{"bufferView":49,"componentType":5126,"count":482,"max":[0.0870480015873909,1.3931981325149536,0.10318607091903687],"min":[-0.0870480015873909,1.3796530961990356,0.09516304731369019],"type":"VEC3"},{"bufferView":50,"componentType":5126,"count":482,"type":"VEC3"},{"bufferView":51,"componentType":5126,"count":482,"type":"VEC2"},{"bufferView":52,"componentType":5121,"count":482,"type":"VEC4"},{"bufferView":53,"componentType":5126,"count":482,"type":"VEC4"},{"bufferView":54,"componentType":5123,"count":1422,"type":"SCALAR"},{"bufferView":55,"componentType":5126,"count":482,"max":[3.725290298461914e-9,0,0.012234091758728027],"min":[-3.725290298461914e-9,-0.04184997081756592,-0.0065444111824035645],"type":"VEC3"},{"bufferView":56,"componentType":5126,"count":482,"type":"VEC3"},{"bufferView":57,"componentType":5126,"count":482,"max":[3.725290298461914e-9,0,0.012287020683288574],"min":[-3.725290298461914e-9,-0.04184997081756592,-0.007928907871246338],"type":"VEC3"},{"bufferView":58,"componentType":5126,"count":482,"type":"VEC3"},{"bufferView":59,"componentType":5126,"count":482,"max":[0,0,0],"min":[0,0,0],"type":"VEC3"},{"bufferView":60,"componentType":5126,"count":482,"type":"VEC3"},{"bufferView":61,"componentType":5126,"count":482,"max":[0,0,0],"min":[0,0,0],"type":"VEC3"},{"bufferView":62,"componentType":5126,"count":482,"type":"VEC3"},{"bufferView":63,"componentType":5126,"count":482,"max":[0,0,0.009917736053466797],"min":[0,0,0],"type":"VEC3"},{"bufferView":64,"componentType":5126,"count":482,"type":"VEC3"},{"bufferView":65,"componentType":5126,"count":482,"max":[0,0,0.00998222827911377],"min":[0,0,0],"type":"VEC3"},{"bufferView":66,"componentType":5126,"count":482,"type":"VEC3"},{"bufferView":67,"componentType":5126,"count":1600,"max":[0.033479999750852585,1.3154850006103516,0.12868614494800568],"min":[-0.033479999750852585,1.2652649879455566,-0.014447442255914211],"type":"VEC3"},{"bufferView":68,"componentType":5126,"count":1600,"type":"VEC3"},{"bufferView":69,"componentType":5126,"count":1600,"type":"VEC2"},{"bufferView":70,"componentType":5121,"count":1600,"type":"VEC4"},{"bufferView":71,"componentType":5126,"count":1600,"type":"VEC4"},{"bufferView":72,"componentType":5123,"count":9216,"type":"SCALAR"},{"bufferView":73,"componentType":5126,"count":1600,"max":[0,0,0],"min":[0,0,0],"type":"VEC3"},{"bufferView":74,"componentType":5126,"count":1600,"type":"VEC3"},{"bufferView":75,"componentType":5126,"count":1600,"max":[0,0,0],"min":[0,0,0],"type":"VEC3"},{"bufferView":76,"componentType":5126,"count":1600,"type":"VEC3"},{"bufferView":77,"componentType":5126,"count":1600,"max":[0,0.011927247047424316,0.0016739964485168457],"min":[0,-0.00975799560546875,0],"type":"VEC3"},{"bufferView":78,"componentType":5126,"count":1600,"type":"VEC3"},{"bufferView":79,"componentType":5126,"count":1600,"max":[0.008370636962354183,0,0.0016739964485168457],"min":[-0.008370636962354183,0,0],"type":"VEC3"},{"bufferView":80,"componentType":5126,"count":1600,"type":"VEC3"},{"bufferView":81,"componentType":5126,"count":1600,"max":[0,0,0],"min":[0,0,0],"type":"VEC3"},{"bufferView":82,"componentType":5126,"count":1600,"type":"VEC3"},{"bufferView":83,"componentType":5126,"count":1600,"max":[0,0,0],"min":[0,0,0],"type":"VEC3"},{"bufferView":84,"componentType":5126,"count":1600,"type":"VEC3"},{"bufferView":85,"componentType":5126,"count":6362,"max":[0.13292688131332397,1.5621956586837769,0.1274544894695282],"min":[-0.13292688131332397,1.1725083589553833,-0.1357877403497696],"type":"VEC3"},{"bufferView":86,"componentType":5126,"count":6362,"type":"VEC3"},{"bufferView":87,"componentType":5126,"count":6362,"type":"VEC2"},{"bufferView":88,"componentType":5121,"count":6362,"type":"VEC4"},{"bufferView":89,"componentType":5126,"count":6362,"type":"VEC4"},{"bufferView":90,"componentType":5123,"count":26328,"type":"SCALAR"},{"bufferView":91,"componentType":5126,"count":2978,"max":[0.32136523723602295,0.895017683506012,0.020757323130965233],"min":[0.21971915662288666,0.7771958112716675,-0.05218728631734848],"type":"VEC3"},{"bufferView":92,"componentType":5126,"count":2978,"type":"VEC3"},{"bufferView":93,"componentType":5121,"count":2978,"type":"VEC4"},{"bufferView":94,"componentType":5126,"count":2978,"type":"VEC4"},{"bufferView":95,"componentType":5123,"count":17856,"type":"SCALAR"},{"bufferView":96,"componentType":5126,"count":147,"max":[0.10452284663915634,1.3854366540908813,0.11106187850236893],"min":[0.02891494147479534,1.3594846725463867,0.059771087020635605],"type":"VEC3"},{"bufferView":97,"componentType":5126,"count":147,"type":"VEC3"},{"bufferView":98,"componentType":5126,"count":147,"type":"VEC2"},{"bufferView":99,"componentType":5121,"count":147,"type":"VEC4"},{"bufferView":100,"componentType":5126,"count":147,"type":"VEC4"},{"bufferView":101,"componentType":5123,"count":357,"type":"SCALAR"},{"bufferView":102,"componentType":5126,"count":147,"max":[0,-0.04184997081756592,0.01255500316619873],"min":[0,-0.04184997081756592,0.012554995715618134],"type":"VEC3"},{"bufferView":103,"componentType":5126,"count":147,"type":"VEC3"},{"bufferView":104,"componentType":5126,"count":147,"max":[0,0,0.01171800121665001],"min":[0,0,0.01171799749135971],"type":"VEC3"},{"bufferView":105,"componentType":5126,"count":147,"type":"VEC3"},{"bufferView":106,"componentType":5126,"count":145,"max":[-0.028914891183376312,1.3854366540908813,0.11106187850236893],"min":[-0.10452280938625336,1.3594846725463867,0.059771113097667694],"type":"VEC3"},{"bufferView":107,"componentType":5126,"count":145,"type":"VEC3"},{"bufferView":108,"componentType":5126,"count":145,"type":"VEC2"},{"bufferView":109,"componentType":5121,"count":145,"type":"VEC4"},{"bufferView":110,"componentType":5126,"count":145,"type":"VEC4"},{"bufferView":111,"componentType":5123,"count":357,"type":"SCALAR"},{"bufferView":112,"componentType":5126,"count":145,"max":[0,-0.04184997081756592,0.01255500316619873],"min":[0,-0.04184997081756592,0.012554995715618134],"type":"VEC3"},{"bufferView":113,"componentType":5126,"count":145,"type":"VEC3"},{"bufferView":114,"componentType":5126,"count":145,"max":[0,0,0.01171800121665001],"min":[0,0,0.01171799749135971],"type":"VEC3"},{"bufferView":115,"componentType":5126,"count":145,"type":"VEC3"},{"bufferView":116,"componentType":5126,"count":193,"max":[0.01590299978852272,1.2962592840194702,0.1175985038280487],"min":[-0.01590299978852272,1.2918397188186646,0.10347411036491394],"type":"VEC3"},{"bufferView":117,"componentType":5126,"count":193,"type":"VEC3"},{"bufferView":118,"componentType":5121,"count":193,"type":"VEC4"},{"bufferView":119,"componentType":5126,"count":193,"type":"VEC4"},{"bufferView":120,"componentType":5123,"count":960,"type":"SCALAR"},{"bufferView":121,"componentType":5126,"count":193,"max":[0,0.011927247047424316,0.0016740038990974426],"min":[0,-0.009274721145629883,0.0016739964485168457],"type":"VEC3"},{"bufferView":122,"componentType":5126,"count":193,"type":"VEC3"},{"bufferView":123,"componentType":5126,"count":193,"max":[0.00763344019651413,0,0.0016740038990974426],"min":[-0.00763344019651413,0,0.0016739964485168457],"type":"VEC3"},{"bufferView":124,"componentType":5126,"count":193,"type":"VEC3"},{"bufferView":125,"componentType":5126,"count":2978,"max":[-0.21971915662288666,0.895017683506012,0.020799940451979637],"min":[-0.32136523723602295,0.7771957516670227,-0.05218727886676788],"type":"VEC3"},{"bufferView":126,"componentType":5126,"count":2978,"type":"VEC3"},{"bufferView":127,"componentType":5121,"count":2978,"type":"VEC4"},{"bufferView":128,"componentType":5126,"count":2978,"type":"VEC4"},{"bufferView":129,"componentType":5123,"count":17856,"type":"SCALAR"}],"asset":{"generator":"VRM Add-on for Blender v4.7.1 with Khronos glTF Blender I/O v5.2.39","version":"2.0"},"bufferViews":[{"buffer":0,"byteLength":555396,"byteOffset":0,"target":34962},{"buffer":0,"byteLength":555396,"byteOffset":555396,"target":34962},{"buffer":0,"byteLength":370264,"byteOffset":1110792,"target":34962},{"buffer":0,"byteLength":185132,"byteOffset":1481056,"target":34962},{"buffer":0,"byteLength":740528,"byteOffset":1666188,"target":34962},{"buffer":0,"byteLength":204186,"byteOffset":2406716,"target":34963},{"buffer":0,"byteLength":555396,"byteOffset":2610904,"target":34962},{"buffer":0,"byteLength":555396,"byteOffset":3166300,"target":34962},{"buffer":0,"byteLength":3456,"byteOffset":3721696},{"buffer":0,"byteLength":9120,"byteOffset":3725152,"target":34962},{"buffer":0,"byteLength":9120,"byteOffset":3734272,"target":34962},{"buffer":0,"byteLength":6080,"byteOffset":3743392,"target":34962},{"buffer":0,"byteLength":3040,"byteOffset":3749472,"target":34962},{"buffer":0,"byteLength":12160,"byteOffset":3752512,"target":34962},{"buffer":0,"byteLength":8640,"byteOffset":3764672,"target":34963},{"buffer":0,"byteLength":9120,"byteOffset":3773312,"target":34962},{"buffer":0,"byteLength":9120,"byteOffset":3782432,"target":34962},{"buffer":0,"byteLength":6080,"byteOffset":3791552,"target":34962},{"buffer":0,"byteLength":3040,"byteOffset":3797632,"target":34962},{"buffer":0,"byteLength":12160,"byteOffset":3800672,"target":34962},{"buffer":0,"byteLength":471012,"byteOffset":3812832,"target":34962},{"buffer":0,"byteLength":471012,"byteOffset":4283844,"target":34962},{"buffer":0,"byteLength":314008,"byteOffset":4754856,"target":34962},{"buffer":0,"byteLength":157004,"byteOffset":5068864,"target":34962},{"buffer":0,"byteLength":628016,"byteOffset":5225868,"target":34962},{"buffer":0,"byteLength":291408,"byteOffset":5853884,"target":34963},{"buffer":0,"byteLength":1536,"byteOffset":6145292,"target":34962},{"buffer":0,"byteLength":1536,"byteOffset":6146828,"target":34962},{"buffer":0,"byteLength":512,"byteOffset":6148364,"target":34962},{"buffer":0,"byteLength":2048,"byteOffset":6148876,"target":34962},{"buffer":0,"byteLength":768,"byteOffset":6150924,"target":34963},{"buffer":0,"byteLength":57300,"byteOffset":6151692,"target":34962},{"buffer":0,"byteLength":57300,"byteOffset":6208992,"target":34962},{"buffer":0,"byteLength":38200,"byteOffset":6266292,"target":34962},{"buffer":0,"byteLength":19100,"byteOffset":6304492,"target":34962},{"buffer":0,"byteLength":76400,"byteOffset":6323592,"target":34962},{"buffer":0,"byteLength":55296,"byteOffset":6399992,"target":34963},{"buffer":0,"byteLength":57300,"byteOffset":6455288,"target":34962},{"buffer":0,"byteLength":57300,"byteOffset":6512588,"target":34962},{"buffer":0,"byteLength":57300,"byteOffset":6569888,"target":34962},{"buffer":0,"byteLength":57300,"byteOffset":6627188,"target":34962},{"buffer":0,"byteLength":57300,"byteOffset":6684488,"target":34962},{"buffer":0,"byteLength":57300,"byteOffset":6741788,"target":34962},{"buffer":0,"byteLength":57300,"byteOffset":6799088,"target":34962},{"buffer":0,"byteLength":57300,"byteOffset":6856388,"target":34962},{"buffer":0,"byteLength":57300,"byteOffset":6913688,"target":34962},{"buffer":0,"byteLength":57300,"byteOffset":6970988,"target":34962},{"buffer":0,"byteLength":57300,"byteOffset":7028288,"target":34962},{"buffer":0,"byteLength":57300,"byteOffset":7085588,"target":34962},{"buffer":0,"byteLength":5784,"byteOffset":7142888,"target":34962},{"buffer":0,"byteLength":5784,"byteOffset":7148672,"target":34962},{"buffer":0,"byteLength":3856,"byteOffset":7154456,"target":34962},{"buffer":0,"byteLength":1928,"byteOffset":7158312,"target":34962},{"buffer":0,"byteLength":7712,"byteOffset":7160240,"target":34962},{"buffer":0,"byteLength":2844,"byteOffset":7167952,"target":34963},{"buffer":0,"byteLength":5784,"byteOffset":7170796,"target":34962},{"buffer":0,"byteLength":5784,"byteOffset":7176580,"target":34962},{"buffer":0,"byteLength":5784,"byteOffset":7182364,"target":34962},{"buffer":0,"byteLength":5784,"byteOffset":7188148,"target":34962},{"buffer":0,"byteLength":5784,"byteOffset":7193932,"target":34962},{"buffer":0,"byteLength":5784,"byteOffset":7199716,"target":34962},{"buffer":0,"byteLength":5784,"byteOffset":7205500,"target":34962},{"buffer":0,"byteLength":5784,"byteOffset":7211284,"target":34962},{"buffer":0,"byteLength":5784,"byteOffset":7217068,"target":34962},{"buffer":0,"byteLength":5784,"byteOffset":7222852,"target":34962},{"buffer":0,"byteLength":5784,"byteOffset":7228636,"target":34962},{"buffer":0,"byteLength":5784,"byteOffset":7234420,"target":34962},{"buffer":0,"byteLength":19200,"byteOffset":7240204,"target":34962},{"buffer":0,"byteLength":19200,"byteOffset":7259404,"target":34962},{"buffer":0,"byteLength":12800,"byteOffset":7278604,"target":34962},{"buffer":0,"byteLength":6400,"byteOffset":7291404,"target":34962},{"buffer":0,"byteLength":25600,"byteOffset":7297804,"target":34962},{"buffer":0,"byteLength":18432,"byteOffset":7323404,"target":34963},{"buffer":0,"byteLength":19200,"byteOffset":7341836,"target":34962},{"buffer":0,"byteLength":19200,"byteOffset":7361036,"target":34962},{"buffer":0,"byteLength":19200,"byteOffset":7380236,"target":34962},{"buffer":0,"byteLength":19200,"byteOffset":7399436,"target":34962},{"buffer":0,"byteLength":19200,"byteOffset":7418636,"target":34962},{"buffer":0,"byteLength":19200,"byteOffset":7437836,"target":34962},{"buffer":0,"byteLength":19200,"byteOffset":7457036,"target":34962},{"buffer":0,"byteLength":19200,"byteOffset":7476236,"target":34962},{"buffer":0,"byteLength":19200,"byteOffset":7495436,"target":34962},{"buffer":0,"byteLength":19200,"byteOffset":7514636,"target":34962},{"buffer":0,"byteLength":19200,"byteOffset":7533836,"target":34962},{"buffer":0,"byteLength":19200,"byteOffset":7553036,"target":34962},{"buffer":0,"byteLength":76344,"byteOffset":7572236,"target":34962},{"buffer":0,"byteLength":76344,"byteOffset":7648580,"target":34962},{"buffer":0,"byteLength":50896,"byteOffset":7724924,"target":34962},{"buffer":0,"byteLength":25448,"byteOffset":7775820,"target":34962},{"buffer":0,"byteLength":101792,"byteOffset":7801268,"target":34962},{"buffer":0,"byteLength":52656,"byteOffset":7903060,"target":34963},{"buffer":0,"byteLength":35736,"byteOffset":7955716,"target":34962},{"buffer":0,"byteLength":35736,"byteOffset":7991452,"target":34962},{"buffer":0,"byteLength":11912,"byteOffset":8027188,"target":34962},{"buffer":0,"byteLength":47648,"byteOffset":8039100,"target":34962},{"buffer":0,"byteLength":35712,"byteOffset":8086748,"target":34963},{"buffer":0,"byteLength":1764,"byteOffset":8122460,"target":34962},{"buffer":0,"byteLength":1764,"byteOffset":8124224,"target":34962},{"buffer":0,"byteLength":1176,"byteOffset":8125988,"target":34962},{"buffer":0,"byteLength":588,"byteOffset":8127164,"target":34962},{"buffer":0,"byteLength":2352,"byteOffset":8127752,"target":34962},{"buffer":0,"byteLength":714,"byteOffset":8130104,"target":34963},{"buffer":0,"byteLength":1764,"byteOffset":8130820,"target":34962},{"buffer":0,"byteLength":1764,"byteOffset":8132584,"target":34962},{"buffer":0,"byteLength":1764,"byteOffset":8134348,"target":34962},{"buffer":0,"byteLength":1764,"byteOffset":8136112,"target":34962},{"buffer":0,"byteLength":1740,"byteOffset":8137876,"target":34962},{"buffer":0,"byteLength":1740,"byteOffset":8139616,"target":34962},{"buffer":0,"byteLength":1160,"byteOffset":8141356,"target":34962},{"buffer":0,"byteLength":580,"byteOffset":8142516,"target":34962},{"buffer":0,"byteLength":2320,"byteOffset":8143096,"target":34962},{"buffer":0,"byteLength":714,"byteOffset":8145416,"target":34963},{"buffer":0,"byteLength":1740,"byteOffset":8146132,"target":34962},{"buffer":0,"byteLength":1740,"byteOffset":8147872,"target":34962},{"buffer":0,"byteLength":1740,"byteOffset":8149612,"target":34962},{"buffer":0,"byteLength":1740,"byteOffset":8151352,"target":34962},{"buffer":0,"byteLength":2316,"byteOffset":8153092,"target":34962},{"buffer":0,"byteLength":2316,"byteOffset":8155408,"target":34962},{"buffer":0,"byteLength":772,"byteOffset":8157724,"target":34962},{"buffer":0,"byteLength":3088,"byteOffset":8158496,"target":34962},{"buffer":0,"byteLength":1920,"byteOffset":8161584,"target":34963},{"buffer":0,"byteLength":2316,"byteOffset":8163504,"target":34962},{"buffer":0,"byteLength":2316,"byteOffset":8165820,"target":34962},{"buffer":0,"byteLength":2316,"byteOffset":8168136,"target":34962},{"buffer":0,"byteLength":2316,"byteOffset":8170452,"target":34962},{"buffer":0,"byteLength":35736,"byteOffset":8172768,"target":34962},{"buffer":0,"byteLength":35736,"byteOffset":8208504,"target":34962},{"buffer":0,"byteLength":11912,"byteOffset":8244240,"target":34962},{"buffer":0,"byteLength":47648,"byteOffset":8256152,"target":34962},{"buffer":0,"byteLength":35712,"byteOffset":8303800,"target":34963}],"buffers":[{"byteLength":8339512,"uri":"geometry-0cedb1dfebbddee7.bin"}],"extensions":{"VRMC_vrm":{"expressions":{"custom":{"correct_lashLeft":{"isBinary":false,"morphTargetBinds":[{"index":1,"node":62,"weight":1},{"index":4,"node":59,"weight":1}],"overrideBlink":"none","overrideLookAt":"none","overrideMouth":"none"},"correct_lashRight":{"isBinary":false,"morphTargetBinds":[{"index":1,"node":63,"weight":1},{"index":5,"node":59,"weight":1}],"overrideBlink":"none","overrideLookAt":"none","overrideMouth":"none"},"pose_seated":{"isBinary":false,"morphTargetBinds":[{"index":0,"node":54,"weight":1}],"overrideBlink":"none","overrideLookAt":"none","overrideMouth":"none"},"track_blinkLeft":{"isBinary":false,"morphTargetBinds":[{"index":0,"node":59,"weight":1},{"index":0,"node":62,"weight":1}],"overrideBlink":"none","overrideLookAt":"none","overrideMouth":"none"},"track_blinkRight":{"isBinary":false,"morphTargetBinds":[{"index":1,"node":59,"weight":1},{"index":0,"node":63,"weight":1}],"overrideBlink":"none","overrideLookAt":"none","overrideMouth":"none"},"track_jawOpen":{"isBinary":false,"morphTargetBinds":[{"index":2,"node":59,"weight":1},{"index":0,"node":64,"weight":1}],"overrideBlink":"none","overrideLookAt":"none","overrideMouth":"none"},"track_mouthNarrow":{"isBinary":false,"morphTargetBinds":[{"index":3,"node":59,"weight":1},{"index":1,"node":64,"weight":1}],"overrideBlink":"none","overrideLookAt":"none","overrideMouth":"none"}},"preset":{"aa":{"isBinary":false,"morphTargetBinds":[{"index":2,"node":59,"weight":1},{"index":0,"node":64,"weight":1}],"overrideBlink":"none","overrideLookAt":"none","overrideMouth":"none"},"angry":{"isBinary":false,"overrideBlink":"none","overrideLookAt":"none","overrideMouth":"none"},"blink":{"isBinary":false,"overrideBlink":"none","overrideLookAt":"none","overrideMouth":"none"},"blinkLeft":{"isBinary":false,"morphTargetBinds":[{"index":0,"node":59,"weight":1},{"index":0,"node":62,"weight":1}],"overrideBlink":"none","overrideLookAt":"none","overrideMouth":"none"},"blinkRight":{"isBinary":false,"morphTargetBinds":[{"index":1,"node":59,"weight":1},{"index":0,"node":63,"weight":1}],"overrideBlink":"none","overrideLookAt":"none","overrideMouth":"none"},"ee":{"isBinary":false,"morphTargetBinds":[{"index":2,"node":59,"weight":0.30000001192092896}],"overrideBlink":"none","overrideLookAt":"none","overrideMouth":"none"},"happy":{"isBinary":false,"overrideBlink":"none","overrideLookAt":"none","overrideMouth":"none"},"ih":{"isBinary":false,"morphTargetBinds":[{"index":2,"node":59,"weight":0.20000000298023224}],"overrideBlink":"none","overrideLookAt":"none","overrideMouth":"none"},"lookDown":{"isBinary":false,"overrideBlink":"none","overrideLookAt":"none","overrideMouth":"none"},"lookLeft":{"isBinary":false,"overrideBlink":"none","overrideLookAt":"none","overrideMouth":"none"},"lookRight":{"isBinary":false,"overrideBlink":"none","overrideLookAt":"none","overrideMouth":"none"},"lookUp":{"isBinary":false,"overrideBlink":"none","overrideLookAt":"none","overrideMouth":"none"},"neutral":{"isBinary":false,"overrideBlink":"none","overrideLookAt":"none","overrideMouth":"none"},"oh":{"isBinary":false,"morphTargetBinds":[{"index":2,"node":59,"weight":0.30000001192092896}],"overrideBlink":"none","overrideLookAt":"none","overrideMouth":"none"},"ou":{"isBinary":false,"morphTargetBinds":[{"index":2,"node":59,"weight":0.20000000298023224}],"overrideBlink":"none","overrideLookAt":"none","overrideMouth":"none"},"relaxed":{"isBinary":false,"overrideBlink":"none","overrideLookAt":"none","overrideMouth":"none"},"sad":{"isBinary":false,"overrideBlink":"none","overrideLookAt":"none","overrideMouth":"none"},"surprised":{"isBinary":false,"morphTargetBinds":[{"index":2,"node":59,"weight":0.25}],"overrideBlink":"none","overrideLookAt":"none","overrideMouth":"none"}}},"firstPerson":{},"humanoid":{"humanBones":{"chest":{"node":51},"head":{"node":29},"hips":{"node":53},"leftEye":{"node":27},"leftFoot":{"node":1},"leftHand":{"node":23},"leftIndexDistal":{"node":8},"leftIndexIntermediate":{"node":9},"leftIndexProximal":{"node":10},"leftLittleDistal":{"node":11},"leftLittleIntermediate":{"node":12},"leftLittleProximal":{"node":13},"leftLowerArm":{"node":24},"leftLowerLeg":{"node":2},"leftMiddleDistal":{"node":14},"leftMiddleIntermediate":{"node":15},"leftMiddleProximal":{"node":16},"leftRingDistal":{"node":17},"leftRingIntermediate":{"node":18},"leftRingProximal":{"node":19},"leftShoulder":{"node":26},"leftThumbDistal":{"node":20},"leftThumbMetacarpal":{"node":22},"leftThumbProximal":{"node":21},"leftToes":{"node":0},"leftUpperArm":{"node":25},"leftUpperLeg":{"node":3},"neck":{"node":30},"rightEye":{"node":28},"rightFoot":{"node":5},"rightHand":{"node":46},"rightIndexDistal":{"node":31},"rightIndexIntermediate":{"node":32},"rightIndexProximal":{"node":33},"rightLittleDistal":{"node":34},"rightLittleIntermediate":{"node":35},"rightLittleProximal":{"node":36},"rightLowerArm":{"node":47},"rightLowerLeg":{"node":6},"rightMiddleDistal":{"node":37},"rightMiddleIntermediate":{"node":38},"rightMiddleProximal":{"node":39},"rightRingDistal":{"node":40},"rightRingIntermediate":{"node":41},"rightRingProximal":{"node":42},"rightShoulder":{"node":49},"rightThumbDistal":{"node":43},"rightThumbMetacarpal":{"node":45},"rightThumbProximal":{"node":44},"rightToes":{"node":4},"rightUpperArm":{"node":48},"rightUpperLeg":{"node":7},"spine":{"node":52},"upperChest":{"node":50}}},"lookAt":{"offsetFromHeadBone":[0,0,0],"rangeMapHorizontalInner":{"inputMaxValue":90,"outputScale":10},"rangeMapHorizontalOuter":{"inputMaxValue":90,"outputScale":10},"rangeMapVerticalDown":{"inputMaxValue":90,"outputScale":10},"rangeMapVerticalUp":{"inputMaxValue":90,"outputScale":10},"type":"bone"},"meta":{"allowAntisocialOrHateUsage":false,"allowExcessivelySexualUsage":false,"allowExcessivelyViolentUsage":false,"allowPoliticalOrReligiousUsage":false,"allowRedistribution":false,"authors":["User-supplied Tripo source / local setup prototype"],"avatarPermission":"onlyAuthor","commercialUsage":"personalNonProfit","creditNotation":"required","licenseUrl":"https://vrm.dev/licenses/1.0/","modification":"prohibited","name":"Tripo Avatar — P01 prototype","version":"0.1.9"},"specVersion":"1.0"}},"extensionsUsed":["KHR_materials_unlit","KHR_materials_emissive_strength","VRMC_materials_mtoon","VRMC_vrm"],"images":[{"mimeType":"image/png","name":"Garment_Clean_Color","uri":"texture-1fc84510e03f0e24.png"},{"mimeType":"image/png","name":"Sclera_Left","uri":"texture-85ac55e4daaff75f.png"},{"mimeType":"image/png","name":"Sclera_Right","uri":"texture-480e273d77e04fa4.png"},{"mimeType":"image/jpeg","name":"pink_pigtail_hairstyle_3d_model_basecolor","uri":"texture-0049fa9ca2388625.jpg"},{"mimeType":"image/png","name":"Eye_Soft_Blush","uri":"texture-d55146c8790aaef6.png"},{"mimeType":"image/png","name":"head-projection.png","uri":"texture-ea68ffb70dddaacd.png"},{"mimeType":"image/png","name":"Mouth_Soft_Blush","uri":"texture-b7a5f568589733e4.png"},{"mimeType":"image/png","name":"Head_Soft_Blush","uri":"texture-944d597288ad212d.png"},{"mimeType":"image/jpeg","name":"anime_head_3d_model_basecolor","uri":"texture-fdd125db9c74e7a1.jpg"}],"materials":[{"alphaMode":"OPAQUE","doubleSided":true,"emissiveFactor":[0,0,0],"extensions":{"KHR_materials_emissive_strength":{"emissiveStrength":1},"KHR_materials_unlit":{},"VRMC_materials_mtoon":{"giEqualizationFactor":0.8999999761581421,"outlineColorFactor":[0.054999999701976776,0.014000000432133675,0.02500000037252903],"outlineLightingMixFactor":1,"outlineWidthFactor":0.001500000013038516,"outlineWidthMode":"screenCoordinates","parametricRimColorFactor":[0,0,0],"parametricRimFresnelPowerFactor":1,"parametricRimLiftFactor":1,"renderQueueOffsetNumber":0,"rimLightingMixFactor":0,"shadeColorFactor":[0.8199999928474426,0.6800000071525574,0.7300000190734863],"shadingShiftFactor":-0.20000000298023224,"shadingToonyFactor":0.8500000238418579,"specVersion":"1.0","transparentWithZWrite":false,"uvAnimationRotationSpeedFactor":0,"uvAnimationScrollXSpeedFactor":0,"uvAnimationScrollYSpeedFactor":0}},"name":"Garment_Clean_Color","pbrMetallicRoughness":{"baseColorFactor":[1,1,1,1],"baseColorTexture":{"index":0}}},{"alphaMode":"OPAQUE","doubleSided":true,"emissiveFactor":[1,1,1],"extensions":{"KHR_materials_emissive_strength":{"emissiveStrength":0},"KHR_materials_unlit":{},"VRMC_materials_mtoon":{"giEqualizationFactor":0.8999999761581421,"outlineColorFactor":[0.054999999701976776,0.014000000432133675,0.02500000037252903],"outlineLightingMixFactor":1,"outlineWidthFactor":0,"outlineWidthMode":"screenCoordinates","parametricRimColorFactor":[0,0,0],"parametricRimFresnelPowerFactor":1,"parametricRimLiftFactor":1,"renderQueueOffsetNumber":0,"rimLightingMixFactor":0,"shadeColorFactor":[0.8199999928474426,0.6800000071525574,0.7300000190734863],"shadingShiftFactor":-0.20000000298023224,"shadingToonyFactor":0.8500000238418579,"specVersion":"1.0","transparentWithZWrite":false,"uvAnimationRotationSpeedFactor":0,"uvAnimationScrollXSpeedFactor":0,"uvAnimationScrollYSpeedFactor":0}},"name":"Eye_Sclera_Left","pbrMetallicRoughness":{"baseColorFactor":[1,1,1,1],"baseColorTexture":{"index":1}}},{"alphaMode":"OPAQUE","doubleSided":true,"emissiveFactor":[1,1,1],"extensions":{"KHR_materials_emissive_strength":{"emissiveStrength":0},"KHR_materials_unlit":{},"VRMC_materials_mtoon":{"giEqualizationFactor":0.8999999761581421,"outlineColorFactor":[0.054999999701976776,0.014000000432133675,0.02500000037252903],"outlineLightingMixFactor":1,"outlineWidthFactor":0,"outlineWidthMode":"screenCoordinates","parametricRimColorFactor":[0,0,0],"parametricRimFresnelPowerFactor":1,"parametricRimLiftFactor":1,"renderQueueOffsetNumber":0,"rimLightingMixFactor":0,"shadeColorFactor":[0.8199999928474426,0.6800000071525574,0.7300000190734863],"shadingShiftFactor":-0.20000000298023224,"shadingToonyFactor":0.8500000238418579,"specVersion":"1.0","transparentWithZWrite":false,"uvAnimationRotationSpeedFactor":0,"uvAnimationScrollXSpeedFactor":0,"uvAnimationScrollYSpeedFactor":0}},"name":"Eye_Sclera_Right","pbrMetallicRoughness":{"baseColorFactor":[1,1,1,1],"baseColorTexture":{"index":2}}},{"alphaMode":"OPAQUE","doubleSided":true,"emissiveFactor":[0,0,0],"extensions":{"KHR_materials_emissive_strength":{"emissiveStrength":1},"KHR_materials_unlit":{},"VRMC_materials_mtoon":{"giEqualizationFactor":0.8999999761581421,"outlineColorFactor":[0.054999999701976776,0.014000000432133675,0.02500000037252903],"outlineLightingMixFactor":1,"outlineWidthFactor":0.001500000013038516,"outlineWidthMode":"screenCoordinates","parametricRimColorFactor":[0,0,0],"parametricRimFresnelPowerFactor":1,"parametricRimLiftFactor":1,"renderQueueOffsetNumber":0,"rimLightingMixFactor":0,"shadeColorFactor":[0.8199999928474426,0.6800000071525574,0.7300000190734863],"shadingShiftFactor":-0.20000000298023224,"shadingToonyFactor":0.8500000238418579,"specVersion":"1.0","transparentWithZWrite":false,"uvAnimationRotationSpeedFactor":0,"uvAnimationScrollXSpeedFactor":0,"uvAnimationScrollYSpeedFactor":0}},"name":"tripo_6a999f07_8cd5_44bc_bd54_3e6df11b4c34","pbrMetallicRoughness":{"baseColorFactor":[1,1,1,1],"baseColorTexture":{"index":3}}},{"alphaMode":"OPAQUE","doubleSided":true,"emissiveFactor":[1,1,1],"extensions":{"KHR_materials_emissive_strength":{"emissiveStrength":0},"KHR_materials_unlit":{},"VRMC_materials_mtoon":{"giEqualizationFactor":0.8999999761581421,"outlineColorFactor":[0.054999999701976776,0.014000000432133675,0.02500000037252903],"outlineLightingMixFactor":1,"outlineWidthFactor":0.001500000013038516,"outlineWidthMode":"screenCoordinates","parametricRimColorFactor":[0,0,0],"parametricRimFresnelPowerFactor":1,"parametricRimLiftFactor":1,"renderQueueOffsetNumber":0,"rimLightingMixFactor":0,"shadeColorFactor":[0.8199999928474426,0.6800000071525574,0.7300000190734863],"shadingShiftFactor":-0.20000000298023224,"shadingToonyFactor":0.8500000238418579,"specVersion":"1.0","transparentWithZWrite":false,"uvAnimationRotationSpeedFactor":0,"uvAnimationScrollXSpeedFactor":0,"uvAnimationScrollYSpeedFactor":0}},"name":"Eyelash","pbrMetallicRoughness":{"baseColorFactor":[0.03200000151991844,0.007000000216066837,0.012000000104308128,1]}},{"alphaMode":"OPAQUE","doubleSided":true,"emissiveFactor":[0,0,0],"extensions":{"KHR_materials_emissive_strength":{"emissiveStrength":1},"KHR_materials_unlit":{},"VRMC_materials_mtoon":{"giEqualizationFactor":0.8999999761581421,"outlineColorFactor":[0,0,0],"outlineLightingMixFactor":1,"outlineWidthFactor":0,"outlineWidthMode":"none","parametricRimColorFactor":[0,0,0],"parametricRimFresnelPowerFactor":1,"parametricRimLiftFactor":1,"renderQueueOffsetNumber":0,"rimLightingMixFactor":0,"shadeColorFactor":[1,1,1],"shadingShiftFactor":-0.20000000298023224,"shadingToonyFactor":0.8999999761581421,"specVersion":"1.0","transparentWithZWrite":false,"uvAnimationRotationSpeedFactor":0,"uvAnimationScrollXSpeedFactor":0,"uvAnimationScrollYSpeedFactor":0}},"name":"Eye_Soft_Blush","pbrMetallicRoughness":{"baseColorFactor":[1,1,1,1],"baseColorTexture":{"index":4}}},{"alphaMode":"OPAQUE","doubleSided":true,"emissiveFactor":[1,1,1],"extensions":{"KHR_materials_emissive_strength":{"emissiveStrength":0},"KHR_materials_unlit":{},"VRMC_materials_mtoon":{"giEqualizationFactor":0.8999999761581421,"outlineColorFactor":[0.054999999701976776,0.014000000432133675,0.02500000037252903],"outlineLightingMixFactor":1,"outlineWidthFactor":0,"outlineWidthMode":"none","parametricRimColorFactor":[0,0,0],"parametricRimFresnelPowerFactor":1,"parametricRimLiftFactor":1,"renderQueueOffsetNumber":0,"rimLightingMixFactor":0,"shadeColorFactor":[0.8199999928474426,0.6800000071525574,0.7300000190734863],"shadingShiftFactor":-0.20000000298023224,"shadingToonyFactor":0.8500000238418579,"specVersion":"1.0","transparentWithZWrite":false,"uvAnimationRotationSpeedFactor":0,"uvAnimationScrollXSpeedFactor":0,"uvAnimationScrollYSpeedFactor":0}},"name":"Eyelid_Source_Line","pbrMetallicRoughness":{"baseColorFactor":[1,1,1,1],"baseColorTexture":{"index":5}}},{"alphaMode":"OPAQUE","doubleSided":true,"emissiveFactor":[0,0,0],"extensions":{"KHR_materials_emissive_strength":{"emissiveStrength":1},"KHR_materials_unlit":{},"VRMC_materials_mtoon":{"giEqualizationFactor":0.8999999761581421,"outlineColorFactor":[0,0,0],"outlineLightingMixFactor":1,"outlineWidthFactor":0,"outlineWidthMode":"none","parametricRimColorFactor":[0,0,0],"parametricRimFresnelPowerFactor":1,"parametricRimLiftFactor":1,"renderQueueOffsetNumber":0,"rimLightingMixFactor":0,"shadeColorFactor":[0.8199999928474426,0.6800000071525574,0.7300000190734863],"shadingShiftFactor":-0.20000000298023224,"shadingToonyFactor":0.8500000238418579,"specVersion":"1.0","transparentWithZWrite":false,"uvAnimationRotationSpeedFactor":0,"uvAnimationScrollXSpeedFactor":0,"uvAnimationScrollYSpeedFactor":0}},"name":"Mouth_Soft_Blush","pbrMetallicRoughness":{"baseColorFactor":[1,1,1,1],"baseColorTexture":{"index":6}}},{"alphaMode":"OPAQUE","doubleSided":true,"emissiveFactor":[0,0,0],"extensions":{"KHR_materials_emissive_strength":{"emissiveStrength":1},"KHR_materials_unlit":{},"VRMC_materials_mtoon":{"giEqualizationFactor":0.8999999761581421,"outlineColorFactor":[0.054999999701976776,0.014000000432133675,0.02500000037252903],"outlineLightingMixFactor":1,"outlineWidthFactor":0.001500000013038516,"outlineWidthMode":"screenCoordinates","parametricRimColorFactor":[0,0,0],"parametricRimFresnelPowerFactor":1,"parametricRimLiftFactor":1,"renderQueueOffsetNumber":0,"rimLightingMixFactor":0,"shadeColorFactor":[0.8199999928474426,0.6800000071525574,0.7300000190734863],"shadingShiftFactor":-0.20000000298023224,"shadingToonyFactor":0.8500000238418579,"specVersion":"1.0","transparentWithZWrite":false,"uvAnimationRotationSpeedFactor":0,"uvAnimationScrollXSpeedFactor":0,"uvAnimationScrollYSpeedFactor":0}},"name":"Head_Soft_Blush","pbrMetallicRoughness":{"baseColorFactor":[1,1,1,1],"baseColorTexture":{"index":7}}},{"alphaMode":"OPAQUE","doubleSided":true,"emissiveFactor":[1,1,1],"extensions":{"KHR_materials_emissive_strength":{"emissiveStrength":0},"KHR_materials_unlit":{},"VRMC_materials_mtoon":{"giEqualizationFactor":0.8999999761581421,"outlineColorFactor":[0.07999999821186066,0.03500000014901161,0.03500000014901161],"outlineLightingMixFactor":1,"outlineWidthFactor":0.0010000000474974513,"outlineWidthMode":"screenCoordinates","parametricRimColorFactor":[0,0,0],"parametricRimFresnelPowerFactor":1,"parametricRimLiftFactor":1,"renderQueueOffsetNumber":0,"rimLightingMixFactor":0,"shadeColorFactor":[0.800000011920929,0.5400000214576721,0.5199999809265137],"shadingShiftFactor":-0.20000000298023224,"shadingToonyFactor":0.8500000238418579,"specVersion":"1.0","transparentWithZWrite":false,"uvAnimationRotationSpeedFactor":0,"uvAnimationScrollXSpeedFactor":0,"uvAnimationScrollYSpeedFactor":0}},"name":"Hand_Skin","pbrMetallicRoughness":{"baseColorFactor":[0.949999988079071,0.699999988079071,0.6000000238418579,1]}},{"alphaMode":"OPAQUE","doubleSided":true,"emissiveFactor":[0,0,0],"extensions":{"KHR_materials_emissive_strength":{"emissiveStrength":1},"KHR_materials_unlit":{},"VRMC_materials_mtoon":{"giEqualizationFactor":0.8999999761581421,"outlineColorFactor":[0.054999999701976776,0.014000000432133675,0.02500000037252903],"outlineLightingMixFactor":1,"outlineWidthFactor":0.001500000013038516,"outlineWidthMode":"none","parametricRimColorFactor":[0,0,0],"parametricRimFresnelPowerFactor":1,"parametricRimLiftFactor":1,"renderQueueOffsetNumber":0,"rimLightingMixFactor":0,"shadeColorFactor":[0.8199999928474426,0.6800000071525574,0.7300000190734863],"shadingShiftFactor":-0.20000000298023224,"shadingToonyFactor":0.8500000238418579,"specVersion":"1.0","transparentWithZWrite":false,"uvAnimationRotationSpeedFactor":0,"uvAnimationScrollXSpeedFactor":0,"uvAnimationScrollYSpeedFactor":0}},"name":"Original_Lash_Texture","pbrMetallicRoughness":{"baseColorFactor":[1,1,1,1],"baseColorTexture":{"index":8}}},{"alphaMode":"OPAQUE","doubleSided":true,"emissiveFactor":[0.06691813468933105,0.01511023472994566,0.011778857558965683],"extensions":{"KHR_materials_emissive_strength":{"emissiveStrength":0},"KHR_materials_unlit":{},"VRMC_materials_mtoon":{"giEqualizationFactor":0.8999999761581421,"outlineColorFactor":[0.054999999701976776,0.014000000432133675,0.02500000037252903],"outlineLightingMixFactor":1,"outlineWidthFactor":0.001500000013038516,"outlineWidthMode":"none","parametricRimColorFactor":[0,0,0],"parametricRimFresnelPowerFactor":1,"parametricRimLiftFactor":1,"renderQueueOffsetNumber":0,"rimLightingMixFactor":0,"shadeColorFactor":[0.6172065734863281,0.1384316086769104,0.13013647496700287],"shadingShiftFactor":-0.20000000298023224,"shadingToonyFactor":0.6499999761581421,"specVersion":"1.0","transparentWithZWrite":false,"uvAnimationRotationSpeedFactor":0,"uvAnimationScrollXSpeedFactor":0,"uvAnimationScrollYSpeedFactor":0}},"name":"Mouth_Salmon_Pink","pbrMetallicRoughness":{"baseColorFactor":[0.9559733271598816,0.2158605009317398,0.16826939582824707,1]}}],"meshes":[{"extras":{"targetNames":["seatedDrape"]},"name":"fa50fad2_2d2d_4ba0_8585_4d788eec3655.001","primitives":[{"attributes":{"JOINTS_0":3,"NORMAL":1,"POSITION":0,"TEXCOORD_0":2,"WEIGHTS_0":4},"indices":5,"material":0,"targets":[{"POSITION":6}]}],"weights":[0]},{"name":"Eye_Left","primitives":[{"attributes":{"JOINTS_0":12,"NORMAL":10,"POSITION":9,"TEXCOORD_0":11,"WEIGHTS_0":13},"indices":14,"material":1}]},{"name":"Eye_Right","primitives":[{"attributes":{"JOINTS_0":18,"NORMAL":16,"POSITION":15,"TEXCOORD_0":17,"WEIGHTS_0":19},"indices":14,"material":2}]},{"name":"tripo_6a999f07_8cd5_44bc_bd54_3e6df11b4c34.001","primitives":[{"attributes":{"JOINTS_0":23,"NORMAL":21,"POSITION":20,"TEXCOORD_0":22,"WEIGHTS_0":24},"indices":25,"material":3}]},{"name":"Head_Choker","primitives":[{"attributes":{"JOINTS_0":28,"NORMAL":27,"POSITION":26,"WEIGHTS_0":29},"indices":30,"material":4}]},{"extras":{"targetNames":["blinkLeft","blinkRight","jawOpen","mouthNarrow","lidArcLeft","lidArcRight"]},"name":"Continuous_Eyelids","primitives":[{"attributes":{"JOINTS_0":34,"NORMAL":32,"POSITION":31,"TEXCOORD_0":33,"WEIGHTS_0":35},"indices":36,"material":5,"targets":[{"POSITION":37},{"POSITION":39},{"POSITION":41},{"POSITION":43},{"POSITION":45},{"POSITION":47}]},{"attributes":{"JOINTS_0":52,"NORMAL":50,"POSITION":49,"TEXCOORD_0":51,"WEIGHTS_0":53},"indices":54,"material":6,"targets":[{"POSITION":55},{"POSITION":57},{"POSITION":59},{"POSITION":61},{"POSITION":63},{"POSITION":65}]},{"attributes":{"JOINTS_0":70,"NORMAL":68,"POSITION":67,"TEXCOORD_0":69,"WEIGHTS_0":71},"indices":72,"material":7,"targets":[{"POSITION":73},{"POSITION":75},{"POSITION":77},{"POSITION":79},{"POSITION":81},{"POSITION":83}]}],"weights":[0,0,0,0,0,0]},{"name":"Head_Spike_Eyelid_Revision.001","primitives":[{"attributes":{"JOINTS_0":88,"NORMAL":86,"POSITION":85,"TEXCOORD_0":87,"WEIGHTS_0":89},"indices":90,"material":8}]},{"name":"left_Hand_Retopo","primitives":[{"attributes":{"JOINTS_0":93,"NORMAL":92,"POSITION":91,"WEIGHTS_0":94},"indices":95,"material":9}]},{"extras":{"targetNames":["blinkLeft","lashArc"]},"name":"Source_Lashes_Left","primitives":[{"attributes":{"JOINTS_0":99,"NORMAL":97,"POSITION":96,"TEXCOORD_0":98,"WEIGHTS_0":100},"indices":101,"material":10,"targets":[{"POSITION":102},{"POSITION":104}]}],"weights":[0,0]},{"extras":{"targetNames":["blinkRight","lashArc"]},"name":"Source_Lashes_Right","primitives":[{"attributes":{"JOINTS_0":109,"NORMAL":107,"POSITION":106,"TEXCOORD_0":108,"WEIGHTS_0":110},"indices":111,"material":10,"targets":[{"POSITION":112},{"POSITION":114}]}],"weights":[0,0]},{"extras":{"targetNames":["jawOpen","mouthNarrow"]},"name":"Mouth_Lip_Attached_Bowl","primitives":[{"attributes":{"JOINTS_0":118,"NORMAL":117,"POSITION":116,"WEIGHTS_0":119},"indices":120,"material":11,"targets":[{"POSITION":121},{"POSITION":123}]}],"weights":[0,0]},{"name":"right_Hand_Retopo","primitives":[{"attributes":{"JOINTS_0":127,"NORMAL":126,"POSITION":125,"WEIGHTS_0":128},"indices":129,"material":9}]}],"nodes":[{"name":"leftToes","rotation":[-0.21471409499645233,5.920282575289093e-8,1.3111485230865583e-8,0.9766770005226135],"translation":[-4.831235855817795e-9,0.16307444870471954,-6.810296326875687e-9]},{"children":[0],"name":"leftFoot","rotation":[-0.48225265741348267,-0.010073389858007431,0.0032835924066603184,0.8759680986404419],"scale":[0.9999999403953552,1,0.9999999403953552],"translation":[-1.2803284821227834e-10,0.40081509947776794,1.5030246491853916e-10]},{"children":[1],"name":"leftLowerLeg","rotation":[-4.643147200056319e-9,-0.024659769609570503,7.767020804294589e-9,0.999695897102356],"scale":[0.9999998807907104,1,0.9999998211860657],"translation":[7.983596006511107e-9,0.3247091770172119,1.273856575778609e-10]},{"children":[2],"name":"leftUpperLeg","rotation":[0.9994487762451172,2.4537428089388413e-7,0.03319782391190529,5.271445857601975e-8],"scale":[1.0000051259994507,1.0000003576278687,1.000000238418579],"translation":[0.07284999638795853,0.006200075149536133,0]},{"name":"rightToes","rotation":[-0.21471409499645233,-5.920282575289093e-8,-1.3111485230865583e-8,0.9766770005226135],"translation":[4.831235855817795e-9,0.16307444870471954,-6.810296326875687e-9]},{"children":[4],"name":"rightFoot","rotation":[-0.48225265741348267,0.010073389858007431,-0.0032835924066603184,0.8759680986404419],"scale":[0.9999999403953552,1,0.9999999403953552],"translation":[1.2803284821227834e-10,0.40081509947776794,1.5030246491853916e-10]},{"children":[5],"name":"rightLowerLeg","rotation":[-4.643147200056319e-9,0.024659769609570503,-7.767020804294589e-9,0.999695897102356],"scale":[0.9999998807907104,1,0.9999998211860657],"translation":[-7.983596006511107e-9,0.3247091770172119,1.273856575778609e-10]},{"children":[6],"name":"rightUpperLeg","rotation":[0.9994487762451172,-2.4537428089388413e-7,-0.03319782391190529,5.271445857601975e-8],"scale":[1.0000051259994507,1.0000003576278687,1.000000238418579],"translation":[-0.07284999638795853,0.006200075149536133,0]},{"name":"leftIndexDistal","rotation":[-1.1566297253295943e-8,3.8795355816745314e-14,-1.1566288371511746e-8,1],"translation":[7.702453785896068e-9,0.020130151882767677,1.2890325251646573e-8]},{"children":[8],"name":"leftIndexIntermediate","rotation":[9.253105304196652e-8,0.0000011958182994931121,-0.000001049641468853224,1],"translation":[-5.6175053941842634e-8,0.020130157470703125,1.0964839702864992e-8]},{"children":[9],"name":"leftIndexProximal","rotation":[0.07876506447792053,-0.32879042625427246,-0.09474413096904755,0.9363313913345337],"scale":[1,1.0000001192092896,1.0000001192092896],"translation":[0.0035994956269860268,0.04213292896747589,-0.011977569200098515]},{"name":"leftLittleDistal","rotation":[-0.0000011297031505819177,-0.0000020116567611694336,0.0000015383257050416432,1],"translation":[-3.154491423629224e-8,0.019373325631022453,-8.644178706163075e-10]},{"children":[11],"name":"leftLittleIntermediate","rotation":[7.210883268271573e-7,0.0000013932584579379181,-0.0000010816295343829552,1],"scale":[1.0000001192092896,1,1.0000001192092896],"translation":[4.710427958798391e-8,0.019373271614313126,-1.9881149171396828e-8]},{"children":[12],"name":"leftLittleProximal","rotation":[0.09984171390533447,-0.0857669934630394,-0.07219728827476501,0.9886674284934998],"scale":[0.9999999403953552,1,1],"translation":[-0.001571260392665863,0.03579439967870712,0.040794216096401215]},{"name":"leftMiddleDistal","rotation":[-1.2302508345385377e-8,5.364419166653533e-7,-5.180113475944381e-7,1],"scale":[0.9999999403953552,1,0.9999999403953552],"translation":[4.09952463087393e-8,0.02247360721230507,1.96449931877396e-8]},{"children":[14],"name":"leftMiddleIntermediate","rotation":[-8.021061148610897e-7,-5.289905402605655e-7,0.0000031217346077028196,1],"scale":[1.0000001192092896,1,1.0000001192092896],"translation":[-3.063769327127375e-8,0.02247348614037037,-2.772549123619683e-8]},{"children":[15],"name":"leftMiddleProximal","rotation":[0.09029783308506012,-0.20564024150371552,-0.08383074402809143,0.9708402752876282],"scale":[1,1.0000001192092896,0.9999999403953552],"translation":[0.0002489711914677173,0.04809874668717384,0.004390453454107046]},{"name":"leftRingDistal","rotation":[-7.304033147192968e-7,-0.0000019222497940063477,0.00000159361536589131,1],"scale":[0.9999999403953552,0.9999999403953552,0.9999999403953552],"translation":[3.088644007220864e-8,0.022791877388954163,-2.3149596017901786e-8]},{"children":[17],"name":"leftRingIntermediate","rotation":[-6.742216100974474e-7,0.0000013411046211331268,0.0000016140600109793013,1],"scale":[0.9999999403953552,1,0.9999999403953552],"translation":[2.7599639906839002e-8,0.022792017087340355,-4.708795131591614e-9]},{"children":[18],"name":"leftRingProximal","rotation":[0.09458532184362411,-0.15424507856369019,-0.07896006107330322,0.9803200364112854],"translation":[0.00011249352246522903,0.045209117233753204,0.023469671607017517]},{"name":"leftThumbDistal","rotation":[-3.42483758686285e-7,2.3469328880310059e-7,-2.3444114560788876e-7,1],"scale":[0.9999999403953552,1,1.0000001192092896],"translation":[-1.1548399925231934e-7,0.021405747160315514,-3.725290298461914e-9]},{"children":[20],"name":"leftThumbProximal","rotation":[-0.0000011031174835807178,2.5331974029541016e-7,-0.000003005835424119141,1],"translation":[-1.1129304766654968e-7,0.02140572853386402,-2.60770320892334e-8]},{"children":[21],"name":"leftThumbMetacarpal","rotation":[-0.3142317235469818,-0.4402502477169037,-0.1958436667919159,0.8179751634597778],"scale":[1,1,0.9999998807907104],"translation":[0.002483181655406952,0.0039026224985718727,-0.018465843051671982]},{"children":[10,13,16,19,22],"name":"leftHand","rotation":[-0.09275132417678833,0.17665936052799225,0.08110486716032028,0.9765298962593079],"scale":[1.0000001192092896,1.0000001192092896,0.9999999403953552],"translation":[-2.976249646735596e-8,0.1459471434354782,-7.5189054982161e-9]},{"children":[23],"name":"leftLowerArm","rotation":[-7.789084577325411e-8,0.014169195666909218,1.1952965905948076e-7,0.9998996257781982],"scale":[0.9999998807907104,0.9999999403953552,0.9999998211860657],"translation":[2.5886558674415028e-8,0.17948567867279053,1.0557107188446935e-8]},{"children":[24],"name":"leftUpperArm","rotation":[0.0212362352758646,-0.5261629819869995,-0.014715193770825863,0.8499912619590759],"scale":[0.9999999403953552,1,0.9999999403953552],"translation":[-3.6523213342576355e-9,0.09002016484737396,-9.547788692998438e-8]},{"children":[25],"name":"leftShoulder","rotation":[-0.5258274674415588,-0.4993325173854828,-0.49933257699012756,0.47417259216308594],"scale":[1.0000001192092896,1.0000001192092896,1],"translation":[0.0340999998152256,0.015500187873840332,0]},{"name":"leftEye","rotation":[5.338507591545749e-8,-0.7071067690849304,-0.7071067690849304,5.338507591545749e-8],"translation":[0.05984549596905708,0.09320151060819626,0.08160749822854996]},{"name":"rightEye","rotation":[5.338507591545749e-8,-0.7071067690849304,-0.7071067690849304,5.338507591545749e-8],"translation":[-0.05984549596905708,0.09320151060819626,0.08160749822854996]},{"children":[27,28],"name":"head","rotation":[-3.552713678800501e-15,0,0,1],"translation":[0,0.05580008029937744,0]},{"children":[29],"name":"neck","rotation":[-3.552713678800501e-15,0,0,1],"translation":[0,0.04960024356842041,0]},{"name":"rightIndexDistal","rotation":[-1.1566297253295943e-8,-3.8795355816745314e-14,1.1566288371511746e-8,1],"translation":[-7.702453785896068e-9,0.020130151882767677,1.2890325251646573e-8]},{"children":[31],"name":"rightIndexIntermediate","rotation":[9.253105304196652e-8,-0.0000011958182994931121,0.000001049641468853224,1],"translation":[5.6175053941842634e-8,0.020130157470703125,1.0964839702864992e-8]},{"children":[32],"name":"rightIndexProximal","rotation":[0.07876506447792053,0.32879042625427246,0.09474413096904755,0.9363313913345337],"scale":[1,1.0000001192092896,1.0000001192092896],"translation":[-0.0035994956269860268,0.04213292896747589,-0.011977569200098515]},{"name":"rightLittleDistal","rotation":[-0.0000011297031505819177,0.0000020116567611694336,-0.0000015383257050416432,1],"translation":[3.154491423629224e-8,0.019373325631022453,-8.644178706163075e-10]},{"children":[34],"name":"rightLittleIntermediate","rotation":[7.210883268271573e-7,-0.0000013932584579379181,0.0000010816295343829552,1],"scale":[1.0000001192092896,1,1.0000001192092896],"translation":[-4.710427958798391e-8,0.019373271614313126,-1.9881149171396828e-8]},{"children":[35],"name":"rightLittleProximal","rotation":[0.09984171390533447,0.0857669934630394,0.07219728827476501,0.9886674284934998],"scale":[0.9999999403953552,1,1],"translation":[0.001571260392665863,0.03579439967870712,0.040794216096401215]},{"name":"rightMiddleDistal","rotation":[-1.2302508345385377e-8,-5.364419166653533e-7,5.180113475944381e-7,1],"scale":[0.9999999403953552,1,0.9999999403953552],"translation":[-4.09952463087393e-8,0.02247360721230507,1.96449931877396e-8]},{"children":[37],"name":"rightMiddleIntermediate","rotation":[-8.021061148610897e-7,5.289905402605655e-7,-0.0000031217346077028196,1],"scale":[1.0000001192092896,1,1.0000001192092896],"translation":[3.063769327127375e-8,0.02247348614037037,-2.772549123619683e-8]},{"children":[38],"name":"rightMiddleProximal","rotation":[0.09029783308506012,0.20564024150371552,0.08383074402809143,0.9708402752876282],"scale":[1,1.0000001192092896,0.9999999403953552],"translation":[-0.0002489711914677173,0.04809874668717384,0.004390453454107046]},{"name":"rightRingDistal","rotation":[-7.304033147192968e-7,0.0000019222497940063477,-0.00000159361536589131,1],"scale":[0.9999999403953552,0.9999999403953552,0.9999999403953552],"translation":[-3.088644007220864e-8,0.022791877388954163,-2.3149596017901786e-8]},{"children":[40],"name":"rightRingIntermediate","rotation":[-6.742216100974474e-7,-0.0000013411046211331268,-0.0000016140600109793013,1],"scale":[0.9999999403953552,1,0.9999999403953552],"translation":[-2.7599639906839002e-8,0.022792017087340355,-4.708795131591614e-9]},{"children":[41],"name":"rightRingProximal","rotation":[0.09458532184362411,0.15424507856369019,0.07896006107330322,0.9803200364112854],"translation":[-0.00011249352246522903,0.045209117233753204,0.023469671607017517]},{"name":"rightThumbDistal","rotation":[-3.42483758686285e-7,-2.3469328880310059e-7,2.3444114560788876e-7,1],"scale":[0.9999999403953552,1,1.0000001192092896],"translation":[1.1548399925231934e-7,0.021405747160315514,-3.725290298461914e-9]},{"children":[43],"name":"rightThumbProximal","rotation":[-0.0000011031174835807178,-2.5331974029541016e-7,0.000003005835424119141,1],"translation":[1.1129304766654968e-7,0.02140572853386402,-2.60770320892334e-8]},{"children":[44],"name":"rightThumbMetacarpal","rotation":[-0.3142317235469818,0.4402502477169037,0.1958436667919159,0.8179751634597778],"scale":[1,1,0.9999998807907104],"translation":[-0.002483181655406952,0.0039026224985718727,-0.018465843051671982]},{"children":[33,36,39,42,45],"name":"rightHand","rotation":[-0.09275132417678833,-0.17665936052799225,-0.08110486716032028,0.9765298962593079],"scale":[1.0000001192092896,1.0000001192092896,0.9999999403953552],"translation":[2.976249646735596e-8,0.1459471434354782,-7.5189054982161e-9]},{"children":[46],"name":"rightLowerArm","rotation":[-7.789084577325411e-8,-0.014169195666909218,-1.1952965905948076e-7,0.9998996257781982],"scale":[0.9999998807907104,0.9999999403953552,0.9999998211860657],"translation":[-2.5886558674415028e-8,0.17948567867279053,1.0557107188446935e-8]},{"children":[47],"name":"rightUpperArm","rotation":[0.0212362352758646,0.5261629819869995,0.014715193770825863,0.8499912619590759],"scale":[0.9999999403953552,1,0.9999999403953552],"translation":[3.6523213342576355e-9,0.09002016484737396,-9.547788692998438e-8]},{"children":[48],"name":"rightShoulder","rotation":[-0.5258274674415588,0.4993325173854828,0.49933257699012756,0.47417259216308594],"scale":[1.0000001192092896,1.0000001192092896,1],"translation":[-0.0340999998152256,0.015500187873840332,0]},{"children":[26,30,49],"name":"upperChest","rotation":[-3.552713678800501e-15,0,0,1],"translation":[0,0.08525002002716064,0]},{"children":[50],"name":"chest","rotation":[-3.552713678800501e-15,0,0,1],"translation":[0,0.10075008869171143,0]},{"children":[51],"name":"spine","rotation":[-3.552713678800501e-15,0,0,1],"translation":[0,0.09300005435943604,0]},{"children":[3,7,52],"name":"hips","rotation":[-2.980232594040899e-8,0,0,1],"scale":[1,0.9999999403953552,0.9999999403953552],"translation":[0,0.8834999799728394,0]},{"mesh":0,"name":"Body_Spike","skin":0},{"mesh":1,"name":"Eye_Left","skin":0},{"mesh":2,"name":"Eye_Right","skin":0},{"mesh":3,"name":"Hair_Spike","skin":0},{"mesh":4,"name":"Head_Choker","skin":0},{"mesh":5,"name":"Head_Face_Loops","skin":0},{"mesh":6,"name":"Head_Spike","skin":0},{"mesh":7,"name":"left_Hand_Retopo","skin":0},{"mesh":8,"name":"Lid_Lash_Left","skin":0},{"mesh":9,"name":"Lid_Lash_Right","skin":0},{"mesh":10,"name":"Mouth_Cavity","skin":0},{"mesh":11,"name":"right_Hand_Retopo","skin":0}],"samplers":[{"magFilter":9729,"minFilter":9729,"wrapS":10497,"wrapT":10497}],"scene":0,"scenes":[{"name":"Scene","nodes":[54,55,56,57,58,59,60,61,62,63,64,65,53]}],"skins":[{"inverseBindMatrices":8,"joints":[53,3,2,1,0,7,6,5,4,52,51,50,26,25,24,23,10,9,8,13,12,11,16,15,14,19,18,17,22,21,20,30,29,27,28,49,48,47,46,33,32,31,36,35,34,39,38,37,42,41,40,45,44,43],"name":"Spike_Humanoid"}],"textures":[{"sampler":0,"source":0},{"sampler":0,"source":1},{"sampler":0,"source":2},{"sampler":0,"source":3},{"sampler":0,"source":4},{"sampler":0,"source":5},{"sampler":0,"source":6},{"sampler":0,"source":7},{"sampler":0,"source":8}]}